<svg id="Layer_1" data-name="Layer 1" xmlns="http://www.w3.org/2000/svg" viewBox="0 0 98.37 85.04" width="99px" height="85px">
    <defs>
        <style>
            .cls-1 {
            fill: #0a2228;
            }

            .cls-2 {
            fill: #fff;
            }

            .cls-3 {
            fill: #dce128;
            }
        </style>
    </defs>
    <title>Untitled-1</title>
    <g>
        <path class="cls-1" d="M50.22,83.94c-1.89-2-9.13-3.56-20.6-5.86C17.11,75.57,1.54,72.45,1.54,68.45V.5H98.91v68c0,4-15.57,7.12-28.09,9.63C59.35,80.38,52.12,81.92,50.22,83.94Z" transform="translate(-1.04 0)"/>
        <path class="cls-2" d="M98.41,1V68.45c0,.66-.83,2.43-8.49,4.74-5.4,1.63-12.41,3-19.19,4.4-12,2.4-18.25,3.81-20.51,5.64C48,81.4,41.7,80,29.72,77.59c-6.79-1.36-13.8-2.77-19.19-4.4C2.86,70.88,2,69.11,2,68.45V1H98.41m1-1H1V68.45c0,8,49.18,11.39,49.18,16.59,0-5.2,49.19-8.62,49.19-16.59V0Z" transform="translate(-1.04 0)"/>
    </g>
    <polygon class="cls-2" points="34.57 22.94 34.57 42.3 30.89 42.3 21.24 30.54 21.24 42.3 16.81 42.3 16.81 22.94 20.52 22.94 30.14 34.69 30.14 22.94 34.57 22.94"/>
    <path class="cls-2" d="M38,22.94a2.47,2.47,0,0,1,2.69-2.41,2.42,2.42,0,0,1,2.68,2.32,2.48,2.48,0,0,1-2.68,2.49A2.47,2.47,0,0,1,38,22.94m.53,4.48h4.31V42.3H38.51Z" transform="translate(-1.04 0)"/>
    <path class="cls-2" d="M53.67,42.52v3.1H50.9v-3A13.05,13.05,0,0,1,44,40.39L45.53,37a11.22,11.22,0,0,0,5.37,2V34.36c-3.07-.75-6.5-1.77-6.5-5.73,0-2.93,2.13-5.44,6.5-5.94V19.62h2.77v3a12.53,12.53,0,0,1,5.61,1.69l-1.38,3.4a11.44,11.44,0,0,0-4.23-1.44V31c3.07.72,6.44,1.74,6.44,5.64,0,2.88-2.1,5.37-6.44,5.89M50.9,30.3V26.37c-1.46.33-2,1.13-2,2s.83,1.5,2,1.89M55.66,37c0-1-.8-1.49-2-1.91v3.82c1.38-.3,2-1,2-1.91" transform="translate(-1.04 0)"/>
    <path class="cls-2" d="M69.93,42.52v3.1H67.16v-3a13,13,0,0,1-6.88-2.21L61.8,37a11.15,11.15,0,0,0,5.36,2V34.36c-3.07-.75-6.5-1.77-6.5-5.73,0-2.93,2.13-5.44,6.5-5.94V19.62h2.77v3a12.53,12.53,0,0,1,5.61,1.69l-1.38,3.4a11.44,11.44,0,0,0-4.23-1.44V31c3.07.72,6.44,1.74,6.44,5.64,0,2.88-2.1,5.37-6.44,5.89M67.16,30.3V26.37c-1.46.33-2,1.13-2,2s.83,1.5,2,1.89M71.92,37c0-1-.8-1.49-2-1.91v3.82c1.38-.3,2-1,2-1.91" transform="translate(-1.04 0)"/>
    <path class="cls-2" d="M77.23,22.94a2.47,2.47,0,0,1,2.68-2.41,2.43,2.43,0,0,1,2.69,2.32,2.7,2.7,0,0,1-5.37.09m.53,4.48h4.31V42.3H77.76Z" transform="translate(-1.04 0)"/>
    <path class="cls-3" d="M28.05,55.53a3.1,3.1,0,0,1,5.36-1.91l-.84.78a1.78,1.78,0,0,0-1.41-.66,1.8,1.8,0,1,0,0,3.59,1.78,1.78,0,0,0,1.41-.66l.84.77a3.09,3.09,0,0,1-5.36-1.91" transform="translate(-1.04 0)"/>
    <path class="cls-3" d="M40.28,57.14H37.67l-.5,1.2H35.84l2.51-5.62h1.28l2.51,5.62H40.78Zm-.41-1L39,54l-.89,2.15Z" transform="translate(-1.04 0)"/>
    <path class="cls-3" d="M44.7,57.79l.44-1A3.26,3.26,0,0,0,47,57.4c.77,0,1.09-.26,1.09-.61,0-1-3.27-.32-3.27-2.41,0-1,.77-1.75,2.37-1.75a3.77,3.77,0,0,1,2,.5l-.4,1a3.27,3.27,0,0,0-1.56-.44c-.77,0-1.07.29-1.07.64,0,1,3.27.33,3.27,2.39,0,.94-.78,1.74-2.39,1.74a3.93,3.93,0,0,1-2.28-.65" transform="translate(-1.04 0)"/>
    <rect class="cls-3" x="51.63" y="52.72" width="1.3" height="5.62"/>
    <polygon class="cls-3" points="61.83 52.72 61.83 58.34 60.76 58.34 57.96 54.93 57.96 58.34 56.67 58.34 56.67 52.72 57.75 52.72 60.54 56.13 60.54 52.72 61.83 52.72"/>
    <path class="cls-3" d="M66.25,55.53a3.08,3.08,0,1,1,3.07,2.91,2.9,2.9,0,0,1-3.07-2.91m4.83,0a1.76,1.76,0,1,0-1.76,1.8,1.71,1.71,0,0,0,1.76-1.8" transform="translate(-1.04 0)"/>
    <rect class="cls-3" x="1" width="96.37" height="2.82"/>
</svg>
